<svg width="95" height="102" xmlns="http://www.w3.org/2000/svg" xmlns:xlink="http://www.w3.org/1999/xlink" overflow="hidden"><defs><clipPath id="clip0"><rect x="31" y="23" width="95" height="102"/></clipPath></defs><g clip-path="url(#clip0)" transform="translate(-31 -23)"><path d="M33.4998 74.5001C33.4998 55.1701 49.3938 39.5 68.9999 39.5 88.6061 39.5 104.5 55.1701 104.5 74.5001 104.5 93.8301 88.6061 109.5 68.9999 109.5 49.3938 109.5 33.4998 93.8301 33.4998 74.5001Z" stroke="#4472C4" stroke-width="4.58333" stroke-miterlimit="8" fill="#4472C4" fill-rule="evenodd"/><path d="M46.4999 32.5C46.4999 28.634 56.3496 25.4999 68.4999 25.4999 80.6502 25.4999 90.4999 28.634 90.4999 32.5 90.4999 36.366 80.6502 39.5 68.4999 39.5 56.3496 39.5 46.4999 36.366 46.4999 32.5Z" stroke="#595959" stroke-width="4.58333" stroke-miterlimit="8" fill="#595959" fill-rule="evenodd"/><path d="M48.5 115.5C48.5 111.634 58.3497 108.5 70.5 108.5 82.6502 108.5 92.5 111.634 92.5 115.5 92.5 119.366 82.6502 122.5 70.5 122.5 58.3497 122.5 48.5 119.366 48.5 115.5Z" stroke="#595959" stroke-width="4.58333" stroke-miterlimit="8" fill="#595959" fill-rule="evenodd"/><path d="M98.5003 54.5 121.5 73.9999 98.5003 93.4998Z" stroke="#4472C4" stroke-width="4.58333" stroke-miterlimit="8" fill="#4472C4" fill-rule="evenodd"/></g></svg>